<svg xmlns="http://www.w3.org/2000/svg" width="1280" height="230" viewBox="0 0 1280 230" fill="none">
  <defs>
    <linearGradient id="bg" x1="0" y1="0" x2="1280" y2="230" gradientUnits="userSpaceOnUse">
      <stop stop-color="#0B0F17"/>
      <stop offset="0.58" stop-color="#0E1522"/>
      <stop offset="1" stop-color="#111827"/>
    </linearGradient>
    <linearGradient id="line" x1="770" y1="30" x2="1210" y2="205" gradientUnits="userSpaceOnUse">
      <stop stop-color="#22D3EE" stop-opacity="0.10"/>
      <stop offset="0.55" stop-color="#60A5FA" stop-opacity="0.45"/>
      <stop offset="1" stop-color="#A78BFA" stop-opacity="0.08"/>
    </linearGradient>
    <radialGradient id="glow" cx="0" cy="0" r="1" gradientUnits="userSpaceOnUse" gradientTransform="translate(1110 90) rotate(150) scale(320 220)">
      <stop stop-color="#2563EB" stop-opacity="0.18"/>
      <stop offset="1" stop-color="#2563EB" stop-opacity="0"/>
    </radialGradient>
    <pattern id="grid" width="40" height="40" patternUnits="userSpaceOnUse">
      <path d="M40 0H0V40" stroke="#94A3B8" stroke-opacity="0.035"/>
    </pattern>
  </defs>

  <rect width="1280" height="230" rx="18" fill="url(#bg)"/>
  <rect width="1280" height="230" rx="18" fill="url(#grid)"/>
  <rect width="1280" height="230" rx="18" fill="url(#glow)"/>
  <rect x="0.75" y="0.75" width="1278.5" height="228.5" rx="17.25" stroke="#334155" stroke-opacity="0.55" stroke-width="1.5"/>

  <g opacity="0.9">
    <path d="M844 57H936C955.33 57 971 72.67 971 92V114" stroke="url(#line)" stroke-width="1.5"/>
    <path d="M971 114H1105C1122.67 114 1137 128.327 1137 146V168" stroke="url(#line)" stroke-width="1.5"/>
    <path d="M971 114V158C971 176.778 986.222 192 1005 192H1066" stroke="url(#line)" stroke-width="1.5"/>
    <path d="M1137 146H1202" stroke="url(#line)" stroke-width="1.5"/>
    <circle cx="836" cy="57" r="4.5" fill="#67E8F9"/>
    <circle cx="971" cy="114" r="5" fill="#60A5FA"/>
    <circle cx="1074" cy="192" r="4.5" fill="#A78BFA"/>
    <circle cx="1210" cy="146" r="4.5" fill="#60A5FA"/>
  </g>

  <g font-family="Inter, ui-sans-serif, system-ui, -apple-system, BlinkMacSystemFont, Segoe UI, sans-serif">
    <text x="72" y="67" fill="#64748B" font-size="14" font-weight="650" letter-spacing="3.2">PYTHON BACKEND · AI ENGINEERING</text>
    <text x="68" y="139" fill="#F8FAFC" font-size="66" font-weight="780" letter-spacing="-1.8">mjDanny</text>
    <text x="72" y="177" fill="#CBD5E1" font-size="20" font-weight="500">Danila Bakhvalov · Backend systems, integrations and applied AI.</text>
    <text x="72" y="207" fill="#64748B" font-size="13" font-weight="650" letter-spacing="2.1">FASTAPI  ·  POSTGRESQL  ·  DOCKER  ·  LLM / RAG</text>
  </g>
</svg>